<svg id="Layer_1" data-name="Layer 1" xmlns="http://www.w3.org/2000/svg" xmlns:xlink="http://www.w3.org/1999/xlink" viewBox="0 0 60 60"><defs><style>.cls-1,.cls-4{fill:none;}.cls-1{clip-rule:evenodd;}.cls-2{clip-path:url(#clip-path);}.cls-3{fill:#77c9c9;}.cls-4{stroke:#334f55;stroke-linecap:square;stroke-linejoin:round;stroke-width:2px;}.cls-5{clip-path:url(#clip-path-2);}.cls-6{fill:#e5605c;}</style><clipPath id="clip-path"><path class="cls-1" d="M8,30.5A17.5,17.5,0,0,1,25.51,13h11A17.5,17.5,0,0,1,54,30.5V48H8V30.5Z"/></clipPath><clipPath id="clip-path-2"><path class="cls-1" d="M28,36h6v3a3,3,0,0,1-6,0V36Z"/></clipPath></defs><title>template</title><g class="cls-2"><rect class="cls-3" x="3" y="8" width="56" height="45"/></g><path class="cls-4" d="M8,30.5A17.5,17.5,0,0,1,25.51,13h11A17.5,17.5,0,0,1,54,30.5V48H8V30.5Z"/><path class="cls-4" d="M25,29a4,4,0,0,0-8,0"/><path class="cls-4" d="M45,29a4,4,0,0,0-8,0"/><line class="cls-4" x1="3" y1="48" x2="59.04" y2="48"/><line class="cls-4" x1="26" y1="36" x2="36" y2="36"/><g class="cls-5"><rect class="cls-6" x="23" y="31" width="16" height="16"/></g><path class="cls-4" d="M28,36h6v3a3,3,0,0,1-6,0V36Z"/></svg>