<svg id="Layer_1" data-name="Layer 1" xmlns="http://www.w3.org/2000/svg" xmlns:xlink="http://www.w3.org/1999/xlink" viewBox="0 0 60 60"><defs><style>.cls-1,.cls-4,.cls-7{fill:none;}.cls-1{clip-rule:evenodd;}.cls-2{clip-path:url(#clip-path);}.cls-3{fill:#e4ad4b;}.cls-4,.cls-7{stroke:#334f55;stroke-linejoin:round;stroke-width:2px;}.cls-4{stroke-linecap:square;}.cls-5{clip-path:url(#clip-path-2);}.cls-6{clip-path:url(#clip-path-3);}.cls-7{stroke-linecap:round;}</style><clipPath id="clip-path"><path class="cls-1" d="M14,48H7V30.5A17.5,17.5,0,0,1,24.51,13h11A17.5,17.5,0,0,1,53,30.5V48H46m-7,0H21"/></clipPath><clipPath id="clip-path-2"><path class="cls-1" d="M21,42v6.5a3.5,3.5,0,0,1-7,0V42"/></clipPath><clipPath id="clip-path-3"><path class="cls-1" d="M46,42v6.5a3.5,3.5,0,0,1-7,0V42"/></clipPath></defs><title>template</title><g class="cls-2"><rect class="cls-3" x="2" y="8" width="56" height="45"/></g><path class="cls-4" d="M14,48H7V30.5A17.5,17.5,0,0,1,24.51,13h11A17.5,17.5,0,0,1,53,30.5V48H46m-7,0H21"/><line class="cls-4" x1="2" y1="48" x2="8" y2="48"/><line class="cls-4" x1="52" y1="48" x2="58" y2="48"/><g class="cls-5"><rect class="cls-3" x="9" y="37" width="17" height="20"/></g><path class="cls-4" d="M21,42v6.5a3.5,3.5,0,0,1-7,0V42"/><g class="cls-6"><rect class="cls-3" x="34" y="37" width="17" height="20"/></g><path class="cls-4" d="M46,42v6.5a3.5,3.5,0,0,1-7,0V42"/><path class="cls-7" d="M16,27a7,7,0,0,0,9.9,0"/><path class="cls-7" d="M34,27a7,7,0,0,0,9.9,0"/><line class="cls-4" x1="16" y1="28" x2="16" y2="31"/><line class="cls-4" x1="16" y1="35" x2="16" y2="36"/><line class="cls-4" x1="43" y1="29" x2="43" y2="30"/><line class="cls-4" x1="43" y1="34" x2="43" y2="37"/></svg>